<?xml version="1.0" encoding="utf-8"?>
<!-- Generator: Adobe Illustrator 16.0.0, SVG Export Plug-In . SVG Version: 6.00 Build 0)  -->
<!DOCTYPE svg PUBLIC "-//W3C//DTD SVG 1.1//EN" "http://www.w3.org/Graphics/SVG/1.1/DTD/svg11.dtd">
<svg version="1.1" id="Layer_1" xmlns="http://www.w3.org/2000/svg"
	xmlns:xlink="http://www.w3.org/1999/xlink" x="0px" y="0px"
	width="625.335px" height="208px" viewBox="0 0 625.335 208" enable-background="new 0 0 625.335 208"
	xml:space="preserve">
<path fill-rule="evenodd" clip-rule="evenodd" fill="#000000" d="M315.928,134.461v58.533h-38.907V16.524h36.974v15.637
	c5.471-5.916,11.352-10.176,17.727-12.824c6.334-2.688,13.778-4.012,22.291-4.012c7.938,0,15.383,1.282,22.292,3.888
	c6.909,2.565,13.284,6.495,19.165,11.748c7.172,6.394,12.698,13.707,16.581,21.938c3.543-7.306,8.387-13.965,14.531-20.036
	c6.169-6.04,12.996-10.589,20.399-13.692c7.444-3.061,15.383-4.591,23.813-4.591c8.02,0,15.135,1.406,21.304,4.178
	c6.211,2.813,11.517,7.032,15.917,12.658V16.524h39.03v133.325h-37.838v-14.892c-5.511,5.502-11.392,9.474-17.562,11.955
	c-6.21,2.44-13.407,3.682-21.592,3.682c-8.021,0-15.506-1.282-22.415-3.889c-6.909-2.564-13.243-6.494-19.042-11.748
	c-7.225-6.373-12.78-13.659-16.666-21.857c-3.546,7.432-8.402,14.139-14.57,20.12c-6.086,5.998-12.872,10.507-20.275,13.527
	c-7.444,3.02-15.423,4.55-23.937,4.55c-8.021,0-15.136-1.406-21.305-4.178C325.634,144.347,320.328,140.086,315.928,134.461
	L315.928,134.461z M444.39,82.338c0,9.391,3.249,17.209,9.706,23.414c6.457,6.247,14.642,9.35,24.513,9.35
	c8.596,0,15.875-3.103,21.88-9.35c5.963-6.205,8.966-13.857,8.966-22.917c0-9.514-3.085-17.498-9.254-23.868
	c-6.21-6.412-13.86-9.598-23.031-9.598c-9.09,0-16.822,3.227-23.196,9.722C447.598,65.544,444.39,73.321,444.39,82.338
	L444.39,82.338z M314.488,83.042c0,9.556,3.043,17.539,9.171,23.951c6.087,6.412,13.737,9.639,22.867,9.639
	c9.172,0,16.986-3.269,23.443-9.763s9.706-14.271,9.706-23.331c0-9.349-3.249-17.168-9.747-23.373
	c-6.54-6.246-14.724-9.349-24.595-9.349c-8.596,0-15.875,3.145-21.881,9.391C317.49,66.454,314.488,74.107,314.488,83.042z"/>
<path fill-rule="evenodd" clip-rule="evenodd" fill="#000000" d="M40.907,134.461v58.533H2V16.524h36.974v15.637
	c5.47-5.916,11.351-10.176,17.726-12.824c6.333-2.688,13.778-4.012,22.291-4.012c7.938,0,15.382,1.282,22.292,3.888
	c6.91,2.565,13.285,6.495,19.166,11.748c7.171,6.394,12.698,13.707,16.581,21.938c3.542-7.306,8.386-13.965,14.531-20.036
	c6.168-6.04,12.996-10.589,20.399-13.692c7.444-3.061,15.382-4.591,23.813-4.591c8.02,0,15.135,1.406,21.304,4.178
	c6.211,2.813,11.516,7.032,15.917,12.658V16.524h39.031v133.325h-37.837v-14.892c-5.511,5.502-11.393,9.474-17.562,11.955
	c-6.21,2.44-13.407,3.682-21.592,3.682c-8.02,0-15.505-1.282-22.415-3.889c-6.91-2.564-13.243-6.494-19.042-11.748
	c-7.225-6.373-12.78-13.659-16.666-21.857c-3.546,7.432-8.402,14.139-14.569,20.12c-6.087,5.998-12.873,10.507-20.276,13.527
	c-7.444,3.02-15.423,4.55-23.937,4.55c-8.021,0-15.135-1.406-21.305-4.178C50.613,144.347,45.308,140.086,40.907,134.461
	L40.907,134.461z M169.369,82.338c0,9.391,3.249,17.209,9.706,23.414c6.457,6.247,14.642,9.35,24.512,9.35
	c8.596,0,15.875-3.103,21.88-9.35c5.963-6.205,8.966-13.857,8.966-22.917c0-9.514-3.085-17.498-9.254-23.868
	c-6.21-6.412-13.86-9.598-23.032-9.598c-9.089,0-16.821,3.227-23.196,9.722C172.577,65.544,169.369,73.321,169.369,82.338
	L169.369,82.338z M39.467,83.042c0,9.556,3.043,17.539,9.172,23.951c6.086,6.412,13.736,9.639,22.867,9.639
	c9.172,0,16.986-3.269,23.443-9.763c6.458-6.494,9.707-14.271,9.707-23.331c0-9.349-3.249-17.168-9.748-23.373
	c-6.539-6.246-14.724-9.349-24.594-9.349c-8.596,0-15.875,3.145-21.88,9.391C42.47,66.454,39.467,74.107,39.467,83.042z"/>
<path fill-rule="evenodd" clip-rule="evenodd" fill="#000000" d="M551.712,16.524h37.098v18.16
	c3.249-6.701,7.608-11.707,13.161-15.057c5.552-3.351,12.256-5.047,20.111-5.047v36.237h-0.946c-11.598,0-19.453,2.193-23.648,6.619
	c-4.154,4.385-6.251,13.196-6.251,26.35v66.063h-39.524V16.524z"/>
</svg>