<?xml version="1.0" encoding="UTF-8"?>
<svg width="128px" height="128px" viewBox="0 0 128 128" version="1.1" xmlns="http://www.w3.org/2000/svg" xmlns:xlink="http://www.w3.org/1999/xlink">
    <title>LogoMark/LogoMark Blue/LogoMark Blue 128x128</title>
    <g id="LogoMark/LogoMark-Blue/LogoMark-Blue-128x128" stroke="none" stroke-width="1" fill="none" fill-rule="evenodd">
        <g id="Icons/Sofascore-Icon" fill="#374DF5" fill-rule="nonzero">
            <path d="M127.0592,64 C127.578789,64 128,64.4212105 128,64.9408 L128,64.9408 L128,127.0592 C128,127.578789 127.578789,128 127.0592,128 L127.0592,128 L0.9408,128 C0.421210507,128 0,127.578789 0,127.0592 L0,127.0592 L0,96.9408 C0,96.4212105 0.421210507,96 0.9408,96 L0.9408,96 L95.0592,96 C95.5787895,96 96,95.5787895 96,95.0592 L96,95.0592 L96,64.9408 C96,64.4212105 96.4212105,64 96.9408,64 L96.9408,64 Z M127.0592,0 C127.578789,0 128,0.421210507 128,0.9408 L128,0.9408 L128,31.0592 C128,31.5787895 127.578789,32 127.0592,32 L127.0592,32 L32.9408,32 C32.4212105,32 32,32.4212105 32,32.9408 L32,32.9408 L32,63.0592 C32,63.5787895 31.5787895,64 31.0592,64 L31.0592,64 L0.9408,64 C0.421210507,64 0,63.5787895 0,63.0592 L0,63.0592 L0,0.9408 C0,0.421210507 0.421210507,0 0.9408,0 L0.9408,0 Z" id="Combined-Shape"></path>
        </g>
    </g>
</svg>